<svg width="3759" height="5026" viewBox="0 0 3759 5026" fill="none" xmlns="http://www.w3.org/2000/svg">
<path d="M1346.66 8.76675L210 751.252C690.468 476.018 1241.65 666.957 1457.18 796.831C2033.66 1173.61 2338.13 1684.38 2418.31 1892.67C2595.54 2262.39 2750.86 2849.49 2806.37 3096.82C2809.53 3471.08 2813.97 4230.49 2806.37 4274.01C2798.76 4317.53 2766.19 4382.98 2750.86 4410.26C2610.44 4852.52 2291.96 4999.02 2150.27 5016.99C2091.77 5023.03 2019.15 5031.5 2196.78 5016.99C2374.41 5002.48 2855.87 4757.41 3074.4 4636.68C3340.44 4484.56 3640.98 4174.69 3758 4038.77V2372.47C3743.2 2155.26 3678.16 1931.71 3647.48 1847.09C3425.95 977.673 2704.85 506.698 2640.34 434.164C2233.89 20.9209 1608.53 -21.6188 1346.66 8.76675Z" fill="#4310A2" stroke="black"/>
<path d="M1491.73 2469.3V1201.12C1331.14 1076.67 971.588 1064 897.595 1064C590.661 1113.34 522.332 1383.02 526.534 1511.69C437.523 1631.08 390.424 2199.84 378 2469.3C407.816 2837.14 439.752 3227.93 451.993 3377.35C659.831 3924.49 1033.71 4243.36 1194.66 4334.4C1481.87 4573.17 1809.44 4591.38 1937.33 4570.64C2224.54 4560.5 2312.78 3986.38 2321 3700.59C1796.14 3521.73 1549.46 2805.2 1491.73 2469.3Z" fill="#4310A2" stroke="black"/>
<mask id="path-3-inside-1_1476_5825" fill="white">
<path fill-rule="evenodd" clip-rule="evenodd" d="M1885.78 5025.5C2796.22 5025.5 2868.28 4643.65 2868.28 3253C2868.28 1862.35 1780.19 532 869.747 532C-2.10661 532 -1.48469 1016.97 0.134129 2279.3C0.205776 2335.17 0.279375 2392.56 0.279375 2451.5C0.279375 3842.15 975.34 5025.5 1885.78 5025.5ZM2286.75 3105.72C2284.05 2976.46 2281.25 2842.94 2281.25 2707.97C2281.25 1841.16 1617.48 1175.42 1084.25 1175.42C551.021 1175.42 542.252 1990.61 542.252 2857.42C542.252 3724.24 1330.02 4381.92 1863.25 4381.92C2313.45 4381.92 2301.41 3806.57 2286.75 3105.72Z"/>
</mask>
<path fill-rule="evenodd" clip-rule="evenodd" d="M1885.78 5025.5C2796.22 5025.5 2868.28 4643.65 2868.28 3253C2868.28 1862.35 1780.19 532 869.747 532C-2.10661 532 -1.48469 1016.97 0.134129 2279.3C0.205776 2335.17 0.279375 2392.56 0.279375 2451.5C0.279375 3842.15 975.34 5025.5 1885.78 5025.5ZM2286.75 3105.72C2284.05 2976.46 2281.25 2842.94 2281.25 2707.97C2281.25 1841.16 1617.48 1175.42 1084.25 1175.42C551.021 1175.42 542.252 1990.61 542.252 2857.42C542.252 3724.24 1330.02 4381.92 1863.25 4381.92C2313.45 4381.92 2301.41 3806.57 2286.75 3105.72Z" fill="white"/>
<path d="M0.134129 2279.3L64.1341 2279.22L0.134129 2279.3ZM2286.75 3105.72L2350.74 3104.38L2350.74 3104.38L2286.75 3105.72ZM2804.28 3253C2804.28 3600.71 2799.75 3882.7 2779.06 4110.85C2758.31 4339.61 2721.73 4508.47 2660.96 4632.61C2601.54 4753.99 2518.39 4833.97 2398.27 4885.24C2275.24 4937.75 2110.2 4961.5 1885.78 4961.5V5089.5C2116.58 5089.5 2301.97 5065.52 2448.51 5002.97C2597.96 4939.19 2703.53 4836.79 2775.93 4688.88C2846.98 4543.72 2885.32 4356.37 2906.53 4122.41C2927.81 3887.85 2932.28 3600.62 2932.28 3253H2804.28ZM869.747 596C1295.92 596 1778.97 910.293 2159.52 1409.79C2538.13 1906.74 2804.28 2573.65 2804.28 3253H2932.28C2932.28 2541.69 2654.38 1848.11 2261.34 1332.22C1870.24 818.881 1354.02 468 869.747 468V596ZM64.1341 2279.22C63.7285 1962.97 63.4149 1698.17 76.6096 1477.56C89.8352 1256.44 116.41 1085.52 167.029 955.493C216.739 827.798 289.053 740.846 395.891 684.001C505.171 625.856 656.56 596 869.747 596V468C647.008 468 471.53 498.765 335.767 571C197.564 644.534 106.662 757.72 47.7482 909.059C-10.2567 1058.06 -37.7141 1245.08 -51.162 1469.92C-64.6408 1695.27 -64.2697 1964.46 -63.8658 2279.38L64.1341 2279.22ZM64.2794 2451.5C64.2794 2392.51 64.2057 2335.08 64.1341 2279.22L-63.8658 2279.38C-63.7942 2335.26 -63.7206 2392.61 -63.7206 2451.5H64.2794ZM1885.78 4961.5C1457.83 4961.5 1003.24 4681.87 652.537 4221.23C303.089 3762.23 64.2794 3132.24 64.2794 2451.5H-63.7206C-63.7206 3161.42 185 3818.42 550.693 4298.76C915.135 4777.46 1403.29 5089.5 1885.78 5089.5V4961.5ZM2217.25 2707.97C2217.25 2843.72 2220.06 2977.9 2222.76 3107.06L2350.74 3104.38C2348.03 2975.02 2345.25 2842.16 2345.25 2707.97H2217.25ZM1084.25 1239.42C1325.85 1239.42 1608.76 1392.06 1833.86 1657.99C2057.54 1922.24 2217.25 2290.99 2217.25 2707.97H2345.25C2345.25 2258.14 2173.08 1860.62 1931.56 1575.29C1691.48 1291.66 1375.88 1111.42 1084.25 1111.42V1239.42ZM606.252 2857.42C606.252 2421.77 608.763 2009.05 675.788 1705.15C709.249 1553.44 757.389 1436.1 823.55 1357.58C887.333 1281.88 970.025 1239.42 1084.25 1239.42V1111.42C931.863 1111.42 813.498 1170.86 725.665 1275.1C640.211 1376.52 586.178 1517.15 550.792 1677.59C480.125 1997.99 478.252 2426.27 478.252 2857.42H606.252ZM1863.25 4317.92C1619.67 4317.92 1304.97 4165.33 1048.81 3900.25C794.286 3636.87 606.252 3271 606.252 2857.42H478.252C478.252 3310.66 684.103 3707.04 956.768 3989.2C1227.8 4269.67 1573.6 4445.92 1863.25 4445.92V4317.92ZM2222.76 3107.06C2230.16 3460.63 2236.22 3770.59 2186.85 3992.76C2162.34 4103.06 2125.64 4183.96 2075.12 4236.88C2026.72 4287.58 1960.56 4317.92 1863.25 4317.92V4445.92C1991.04 4445.92 2092.21 4404.35 2167.71 4325.27C2241.09 4248.41 2284.88 4141.67 2311.8 4020.52C2365.3 3779.8 2358 3451.66 2350.74 3104.38L2222.76 3107.06Z" fill="#4310A2" mask="url(#path-3-inside-1_1476_5825)"/>
</svg>
